<svg width="126" height="126" viewBox="0 0 126 126" fill="none" xmlns="http://www.w3.org/2000/svg">
<path d="M62.748 115.416C91.8358 115.416 115.416 91.8357 115.416 62.748C115.416 33.6603 91.8358 10.08 62.748 10.08C33.6603 10.08 10.08 33.6603 10.08 62.748C10.08 91.8357 33.6603 115.416 62.748 115.416Z" fill="#2963B9"/>
<path d="M62.748 10.584C91.5113 10.584 114.912 33.9847 114.912 62.748C114.912 91.5113 91.5113 114.912 62.748 114.912C33.9847 114.912 10.584 91.5113 10.584 62.748C10.584 33.9847 33.9847 10.584 62.748 10.584ZM62.748 10.08C33.6622 10.08 10.08 33.6622 10.08 62.748C10.08 91.8338 33.6622 115.416 62.748 115.416C91.8339 115.416 115.416 91.8338 115.416 62.748C115.416 33.6622 91.8339 10.08 62.748 10.08Z" fill="black"/>
<path d="M59.0938 44.5664L55.9004 50.6895C55.002 49.8887 53.6152 49.0977 51.7402 48.3164C49.8652 47.5156 48.2539 47.1152 46.9062 47.1152C42.6875 47.1152 39.3574 48.5508 36.916 51.4219C34.4746 54.2735 33.2539 58.1016 33.2539 62.9063C33.2539 67.4766 34.4453 71.1289 36.8281 73.8633C39.2305 76.5977 42.4922 77.9649 46.6133 77.9649C49.3281 77.9649 51.5645 77.2227 53.3223 75.7383V67.3008H47.375V60.7969H60.9395V80.0156C59.123 81.5 56.7793 82.6621 53.9082 83.502C51.0566 84.3223 48.2148 84.7324 45.3828 84.7324C39.2305 84.7324 34.3477 82.7207 30.7344 78.6973C27.1406 74.6543 25.3438 69.3223 25.3438 62.7012C25.3438 56.0801 27.3066 50.6992 31.2324 46.5586C35.1582 42.418 40.4414 40.3477 47.082 40.3477C51.7891 40.3477 55.793 41.7539 59.0938 44.5664Z" fill="white"/>
<path d="M76.0117 47.8477V57.8965H91.0996V64.3711H76.0117V84H68.3945V41.0801H96.666V47.8477H76.0117Z" fill="white"/>
<path d="M62.748 115.416C91.8358 115.416 115.416 91.8357 115.416 62.748C115.416 33.6603 91.8358 10.08 62.748 10.08C33.6603 10.08 10.08 33.6603 10.08 62.748C10.08 91.8357 33.6603 115.416 62.748 115.416Z" stroke="#1A1A1A" stroke-width="2" stroke-miterlimit="10"/>
</svg>
